# xmcd CD database file
#
# Track frame offsets:
#	150
#	17953
#	33560
#	47848
#	69633
#	93343
#	107200
#	127545
#	150913
#	175838
#	193898
#	209183
#	224573
#	237293
#	249505
#	263950
#	281503
#	304345
#	320610
#	339993
#
# Disc length: 4711 seconds
#
# Revision: 1
# Processed by: cddbd v1.5PL3 Copyright (c) Steve Scherf et al.
# Submitted via: CDex 1.51
#
DISCID=2d126514
DTITLE=Run DMC - High Profile - The Original Rhymes 〜Greatest Hits〜
DYEAR=2002
DGENRE=Rap
TTITLE0=Bounce
TTITLE1=You Be Illin'
TTITLE2=Sucker MC's
TTITLE3=It's Like That
TTITLE4=King Of Rock
TTITLE5=It's Tricky
TTITLE6=Can You Rock It Like This
TTITLE7=Walk This Way (Ft. Aerosmith)
TTITLE8=Rock Box
TTITLE9=You Talk To Much
TTITLE10=Run's House
TTITLE11=Peter Piper
TTITLE12=My Adidas
TTITLE13=Beats To The Rhyme
TTITLE14=Jam Master Jay
TTITLE15=Hard Times
TTITLE16=Down With The King
TTITLE17=Mary Mary
TTITLE18=Ghostbusters
TTITLE19=Christmas In Hollis
EXTD=YEAR: 2002
EXTT0=
EXTT1=
EXTT2=
EXTT3=
EXTT4=
EXTT5=
EXTT6=
EXTT7=
EXTT8=
EXTT9=
EXTT10=
EXTT11=
EXTT12=
EXTT13=
EXTT14=
EXTT15=
EXTT16=
EXTT17=
EXTT18=
EXTT19=
PLAYORDER=
